<svg id="Filled" height="512" viewBox="0 0 512 512" width="512" xmlns="http://www.w3.org/2000/svg"><g><g><path d="m456 88v-32h-96v32h-16v296h128v-296z" fill="#80daff"/><path d="m62.4766 384a232.0544 232.0544 0 0 0 387.0468 0z" fill="#fbd373"/><path d="m232 384h-112v-112l56-48 56 48z" fill="#80daff"/><path d="m344 384h-112v-176l64-64h48z" fill="#f47b79"/><path d="m112 432h288v16h-288z"/><path d="m120 384h-80v-64l40-24 40 24z" fill="#f47b79"/></g><path d="m24 216 120-112 48 40 72-80-24-16 80-24-8 80-24-16-96 104-48-40-120 112z" fill="#fbd373"/><g><path d="m480 376v-88h-16v88h-48v-32h-16v32h-48v-280h112v176h16v-184a8 8 0 0 0 -8-8h-8v-24a8 8 0 0 0 -8-8h-40v-32h-16v32h-40a8 8 0 0 0 -8 8v24h-8a8 8 0 0 0 -8 8v48h-40a7.9986 7.9986 0 0 0 -5.6567 2.3433l-64 64a7.9986 7.9986 0 0 0 -2.3433 5.6567v46.606l-42.7935-36.68a8.0017 8.0017 0 0 0 -10.413 0l-56 48a8.0009 8.0009 0 0 0 -2.7935 6.074v33.87l-27.8838-16.73a7.9989 7.9989 0 0 0 -8.2324 0l-40 24a8.0007 8.0007 0 0 0 -3.8838 6.86v56h-16v16h42.2276a240.0477 240.0477 0 0 0 395.5448 0h42.2276v-16zm-112-312h80v16h-80zm-128 147.3135 59.3135-59.3135h36.6865v224h-40v-32h-16v32h-40zm-112 64.3665 48-41.1431 48 41.1431v100.32h-40v-32h-16v32h-40zm-80 48.85 32-19.2 32 19.2v51.47h-24v-32h-16v32h-24zm29.99 67.47h71.94a294.3293 294.3293 0 0 0 57.8452 82.78 223.5736 223.5736 0 0 1 -129.7852-82.78zm158.2468 87.1343c-27.9662-23.2962-51.4568-53.201-68.5168-87.1343h176.56c-17.06 33.9333-40.5509 63.8381-68.5168 87.1343q-9.8022.8613-19.7632.8657-9.9534 0-19.7635-.8657zm67.9882-4.3543a294.3293 294.3293 0 0 0 57.845-82.78h71.94a223.5736 223.5736 0 0 1 -129.785 82.78z"/><path d="m144 288h16v40h-16z"/><path d="m192 288h16v40h-16z"/><path d="m256 288h16v40h-16z"/><path d="m304 288h16v40h-16z"/><path d="m256 232h16v40h-16z"/><path d="m304 232h16v40h-16z"/><path d="m368 232h16v40h-16z"/><path d="m400 232h16v40h-16z"/><path d="m368 176h16v40h-16z"/><path d="m400 176h16v40h-16z"/><path d="m368 120h16v40h-16z"/><path d="m400 120h16v40h-16z"/><path d="m432 232h16v40h-16z"/><path d="m368 288h16v40h-16z"/><path d="m400 288h16v40h-16z"/><path d="m432 288h16v40h-16z"/><path d="m432 176h16v40h-16z"/><path d="m432 120h16v40h-16z"/><path d="m304 176h16v40h-16z"/><path d="m20.8115 271.3374a8.0012 8.0012 0 0 0 8.647-1.4888l114.8415-107.185 42.5786 35.4824a8.0008 8.0008 0 0 0 11-.72l91.3672-98.981 18.3169 12.2109a8 8 0 0 0 12.3979-5.86l8-80a8 8 0 0 0 -10.2592-8.4585l-80 24a8 8 0 0 0 -2.1387 14.3188l16.3022 10.8687-60.6591 67.3994-42.084-35.07a8.0007 8.0007 0 0 0 -10.58.2974l-42.8569 40 10.917 11.6972 37.6981-35.1853 42.5786 35.4824a8.001 8.001 0 0 0 11.0679-.7944l72-80a8 8 0 0 0 -1.5088-12.0078l-9.8511-6.5674 52.2642-15.6792-5.4868 54.8642-12.9263-8.6176a7.999 7.999 0 0 0 -10.3159 1.23l-90.8418 98.412-42.1584-35.1318a8 8 0 0 0 -10.58.2974l-106.5416 99.4386v-26.1134l61.4585-57.3614-10.917-11.6972-64 59.7334a8.0009 8.0009 0 0 0 -2.5415 5.8486v48a8.0011 8.0011 0 0 0 4.8115 7.3374z"/></g></g></svg>